<svg width="165" height="23" fill="none" xmlns="http://www.w3.org/2000/svg"><path d="M117.586 10.298c.23-1.47 1.339-2.487 2.984-2.487 1.646 0 2.679 1.017 2.832 2.487h-5.816zm-2.793 1.056c0 3.958 2.755 6.03 5.777 6.03 2.22 0 4.133-.904 5.204-2.751l-2.143-1.432c-.612 1.281-1.645 1.809-2.907 1.809-1.607 0-3.061-1.055-3.138-2.676h8.303s.153-.49.153-1.282c0-3.09-1.99-5.691-5.472-5.691-3.94 0-5.777 3.241-5.777 5.993zm-10.216.113c0-2.186 1.186-3.619 3.176-3.619 1.875 0 3.099 1.433 3.099 3.657 0 2.035-1.263 3.43-3.176 3.43-1.913 0-3.099-1.395-3.099-3.468zm-2.755 11.12h2.793v-6.37h.077c1.109.79 2.296 1.168 3.482 1.168 2.908 0 5.586-2.224 5.586-6.031 0-3.807-2.181-5.993-5.472-5.993-1.454 0-2.716.565-3.596 1.432h-.077V5.7h-2.793v16.886zM86.977 5.7l5.777 10.968L90 22.586h2.985l7.92-16.886h-3.023l-3.673 7.915L90.076 5.7h-3.1zm-14.08 11.383h2.792v-6.86h7.806v6.86h2.793V1.026h-2.793v6.596h-7.806V1.026h-2.793v16.057zm-10.025 0h2.64V5.7h-2.64v11.383zm-.345-14.625c0-.904.804-1.658 1.646-1.658.994 0 1.683.754 1.683 1.658 0 .905-.689 1.621-1.683 1.621-.842 0-1.646-.754-1.646-1.62zM44.391 17.083V5.7h2.64v1.394h.115c.65-1.055 1.951-1.733 3.29-1.733 1.875 0 2.794 1.13 3.138 1.96h.115c.497-.83 1.722-1.96 3.864-1.96 2.602 0 3.827 1.997 3.827 4.56v7.162h-2.64v-6.672c0-1.356-.728-2.6-2.067-2.6-1.683 0-2.525 1.281-2.525 2.789v6.483h-2.602v-6.672c0-1.281-.612-2.6-2.028-2.6-1.568 0-2.487 1.244-2.487 2.789v6.483h-2.64zm-9.565-5.578c0 1.846.688 3.693 2.793 3.693 1.99 0 2.87-1.771 2.87-3.694 0-2.336-.88-3.957-2.87-3.957-1.837 0-2.793 1.394-2.793 3.958zm-2.679 0c0-4.26 2.717-6.144 5.472-6.144 3.176 0 5.471 2.186 5.471 6.144 0 3.354-2.028 5.88-5.471 5.88-3.138 0-5.472-2.337-5.472-5.88zm-8.494 2.412c0 .942.919 1.281 1.837 1.281 1.569 0 2.793-.829 2.793-2.638v-.415h-1.186c-1.492 0-3.444.302-3.444 1.772zm-2.64.188c0-2.751 2.41-4.07 5.548-4.07h1.722v-.34c0-1.545-1.186-2.148-2.372-2.148-1.11 0-1.875.528-2.449 1.319l-1.837-1.32c1.225-1.582 2.487-2.185 4.477-2.185 2.678 0 4.744 1.583 4.744 4.334v7.388h-2.563v-.98h-.077c-.573.792-1.95 1.282-3.328 1.282-2.181 0-3.865-1.207-3.865-3.28zm-4.362 2.978h2.64V5.7h-2.64v11.383zm-.344-14.625c0-.904.803-1.658 1.684-1.658.956 0 1.645.754 1.645 1.658 0 .905-.689 1.621-1.645 1.621-.88 0-1.684-.754-1.684-1.62zM.352 17.083h3.1l4.17-5.88 4.132 5.88h3.1L9.151 9.017l5.663-7.991h-3.138L7.622 6.793 3.528 1.026H.39l5.663 7.99-5.701 8.067zm129.746-5.691v5.691h-2.755V5.7h2.755V7.47h.076c.995-1.658 2.449-2.11 4.477-2.11h.459v2.676h-.459c-3.214 0-4.553 1.13-4.553 3.354z" fill="#000"/><path d="m152.29 14.219 2.142-1.508c.919 1.621 2.219 2.375 4.133 2.375 1.377 0 3.252-.452 3.252-2.224 0-1.658-2.181-2.261-3.712-2.676-2.487-.716-5.395-1.546-5.395-4.862 0-3.016 2.641-4.75 5.969-4.75 2.411 0 4.592 1.056 5.816 3.166l-2.066 1.433c-.88-1.282-2.257-2.111-3.788-2.111-1.416 0-3.099.678-3.099 2.148 0 1.81 2.028 2.262 3.673 2.714 3.214.905 5.433 1.885 5.433 4.825 0 3.392-3.061 4.9-6.083 4.9-2.641 0-5.051-1.093-6.275-3.43zM139.281 9.13c0 3.581 1.645 6.069 4.706 6.069 3.061 0 4.706-2.45 4.706-6.069 0-3.241-1.454-5.955-4.706-5.955-3.252 0-4.706 2.714-4.706 5.955zm-2.908 0c0-4.787 2.563-8.443 7.614-8.443 5.05 0 7.614 3.656 7.614 8.443 0 5.202-2.755 8.557-7.614 8.557s-7.614-3.317-7.614-8.557z" fill="#2655FF"/></svg>